# xmcd CD Database Entry
#
# Track frame offsets:
# 150
# 29882
# 58099
# 153105
# 200630
# 235568
#
# Disc length: 3751 seconds
#
# Revision: 2
# Processed by: cddbd v1.5.1PL0 Copyright (c) Steve Scherf et al.
# Submitted via: tcd 2.0b
#
DISCID=4b0ea506
DTITLE=Pink Floyd - Animal Instincts Rev B Disc 2
DYEAR=1900
DGENRE=
TTITLE0=Have A Cigar
TTITLE1=Wish You Were Here
TTITLE2=Shine On you Crazy Diamond (6-9)
TTITLE3=Money
TTITLE4=Us and Them
TTITLE5=Careful With That Axe, Eugene
EXTD=
EXTT0=
EXTT1=
EXTT2=
EXTT3=
EXTT4=
EXTT5=
PLAYORDER=
